<?xml version="1.0" standalone="no"?>
<!DOCTYPE svg PUBLIC "-//W3C//DTD SVG 20010904//EN"
 "http://www.w3.org/TR/2001/REC-SVG-20010904/DTD/svg10.dtd">
<svg version="1.0" xmlns="http://www.w3.org/2000/svg"
 width="500.000000pt" height="500.000000pt" viewBox="0 0 500.000000 500.000000"
 preserveAspectRatio="xMidYMid meet">

<g transform="translate(0.000000,500.000000) scale(0.100000,-0.100000)"
fill="#000000" stroke="none">
<path d="M1870 3233 c-41 -2 -80 -9 -87 -15 -10 -8 -13 -151 -13 -718 0 -646
1 -709 17 -721 13 -12 137 -14 714 -14 607 0 700 2 713 15 13 13 15 110 17
719 1 641 0 704 -15 720 -15 14 -75 16 -644 17 -345 0 -661 -1 -702 -3z m1254
-145 c3 -18 6 -295 5 -615 0 -435 -3 -585 -12 -590 -12 -8 -1226 -8 -1233 0
-8 8 -8 60 -6 660 l2 577 619 0 619 0 6 -32z"/>
<path d="M2050 2955 l0 -55 85 0 85 0 0 55 0 55 -85 0 -85 0 0 -55z"/>
<path d="M2280 2955 l0 -55 80 0 80 0 0 55 0 55 -80 0 -80 0 0 -55z"/>
<path d="M2560 2955 l0 -55 85 0 85 0 0 55 0 55 -85 0 -85 0 0 -55z"/>
<path d="M2790 2955 l0 -55 80 0 80 0 0 55 0 55 -80 0 -80 0 0 -55z"/>
<path d="M2050 2610 l0 -170 165 0 165 0 0 170 0 170 -165 0 -165 0 0 -170z
m220 0 l0 -60 -55 0 -55 0 0 60 0 60 55 0 55 0 0 -60z"/>
<path d="M2620 2610 l0 -170 165 0 165 0 0 170 0 170 -165 0 -165 0 0 -170z
m220 0 l0 -60 -55 0 -55 0 0 60 0 60 55 0 55 0 0 -60z"/>
<path d="M2416 2319 c-71 -11 -168 -63 -222 -117 -56 -55 -102 -148 -111 -221
l-6 -51 57 0 c52 0 56 2 56 23 0 42 30 114 66 155 21 24 62 55 101 74 58 28
77 33 143 32 152 -1 270 -91 301 -230 l12 -54 54 0 c61 0 62 1 38 95 -39 149
-168 264 -329 294 -67 12 -89 12 -160 0z"/>
</g>
</svg>
